<svg width="512" height="512" viewBox="0 0 512 512" fill="none" xmlns="http://www.w3.org/2000/svg">
<path d="M384 336C375.38 335.997 366.849 337.741 358.922 341.127C350.996 344.513 343.837 349.47 337.88 355.7L189.88 272.43C192.747 261.664 192.747 250.336 189.88 239.57L337.88 156.3C348.657 167.473 363.138 174.334 378.611 175.597C394.083 176.86 409.485 172.438 421.932 163.159C434.378 153.881 443.014 140.383 446.223 125.195C449.431 110.006 446.992 94.1684 439.362 80.6491C431.731 67.1299 419.433 56.8565 404.772 51.7536C390.111 46.6507 374.092 47.0684 359.717 52.9285C345.341 58.7886 333.596 69.6889 326.68 83.5875C319.765 97.486 318.154 113.429 322.15 128.43L174.15 211.7C165.309 202.482 153.913 196.121 141.427 193.433C128.941 190.745 115.937 191.855 104.087 196.619C92.237 201.383 82.0834 209.584 74.9324 220.166C67.7814 230.748 63.9601 243.228 63.9601 256C63.9601 268.772 67.7814 281.252 74.9324 291.834C82.0834 302.416 92.237 310.617 104.087 315.381C115.937 320.145 128.941 321.255 141.427 318.567C153.913 315.879 165.309 309.518 174.15 300.3L322.15 383.57C318.719 396.489 319.418 410.158 324.15 422.658C328.883 435.159 337.41 445.865 348.536 453.273C359.663 460.68 372.829 464.419 386.188 463.963C399.547 463.507 412.428 458.88 423.023 450.731C433.618 442.582 441.396 431.32 445.265 418.525C449.134 405.731 448.9 392.046 444.596 379.391C440.292 366.737 432.134 355.747 421.266 347.965C410.398 340.183 397.367 335.999 384 336Z" fill="black"/>
<path d="M250.195 295.236C245.157 293.153 240.655 290.147 237.329 286.646C234.758 283.952 232.953 281.061 232.06 278.209C231.167 275.358 231.212 272.627 232.193 270.241C233.337 267.434 235.886 265.285 239.481 264.1C243.076 262.915 247.534 262.752 252.226 263.635L276.146 268.165C277.666 268.448 279.108 268.392 280.268 268.005C281.429 267.618 282.249 266.919 282.613 266.007L310.189 199.124C310.966 197.223 312.749 195.799 315.259 195.077C317.768 194.355 320.861 194.376 324.048 195.136L374.109 207.011C375.61 207.368 377.094 207.952 378.445 208.72C379.797 209.488 380.981 210.418 381.907 211.44C382.833 212.462 383.475 213.548 383.786 214.615C384.096 215.682 384.066 216.702 383.698 217.596L377.359 232.97C376.582 234.877 374.792 236.305 372.272 237.025C369.751 237.746 366.646 237.719 363.449 236.949L321.192 226.731C319.576 226.348 318.009 226.341 316.74 226.712C315.471 227.082 314.573 227.809 314.188 228.777L287.617 293.224C286.519 295.919 284.071 297.981 280.62 299.119C277.169 300.256 272.888 300.411 268.383 299.562L258.285 297.65C255.569 297.139 252.836 296.324 250.195 295.236Z" fill="black"/>
<path d="M191.492 161.817C188.684 160.654 186.223 158.855 184.461 156.678C183.099 155.002 182.186 153.163 181.797 151.31C181.407 149.457 181.553 147.644 182.221 146.018C183.003 144.106 184.564 142.57 186.685 141.628C188.806 140.685 191.38 140.384 194.043 140.765L207.615 142.731C208.477 142.853 209.31 142.753 209.995 142.445C210.68 142.138 211.183 141.639 211.432 141.018L230.229 95.4513C230.759 94.1567 231.848 93.1347 233.324 92.5466C234.8 91.9585 236.58 91.8377 238.381 92.2034L266.681 97.9053C267.53 98.0766 268.358 98.3999 269.103 98.8504C269.848 99.3008 270.489 99.8666 270.977 100.504C271.465 101.142 271.788 101.834 271.92 102.529C272.052 103.223 271.99 103.901 271.739 104.51L267.418 114.984C266.888 116.283 265.795 117.308 264.312 117.896C262.83 118.483 261.043 118.601 259.236 118.228L235.357 113.287C234.443 113.103 233.541 113.167 232.795 113.468C232.048 113.768 231.5 114.29 231.236 114.948L213.123 158.855C212.374 160.691 210.874 162.166 208.838 163.07C206.801 163.975 204.33 164.263 201.774 163.896L196.044 163.067C194.503 162.846 192.966 162.424 191.492 161.817Z" fill="black"/>
<path d="M426.974 304C423.022 303.996 419.173 303.18 415.976 301.669C413.509 300.509 411.499 298.986 410.113 297.224C408.726 295.462 408.002 293.511 408 291.532C407.991 289.205 409.106 286.935 411.188 285.043C413.27 283.15 416.213 281.731 419.602 280.984L436.887 277.201C437.983 276.958 438.934 276.496 439.605 275.882C440.276 275.268 440.633 274.532 440.625 273.778V218.258C440.62 216.682 441.422 215.15 442.904 213.904C444.387 212.657 446.465 211.767 448.812 211.374L485.647 205.156C486.752 204.969 487.908 204.95 489.026 205.099C490.145 205.248 491.195 205.562 492.098 206.016C493.001 206.471 493.732 207.053 494.235 207.719C494.738 208.386 495 209.118 495 209.86V222.622C495.006 224.203 494.201 225.739 492.711 226.988C491.221 228.237 489.132 229.126 486.776 229.515L455.629 234.626C454.44 234.827 453.388 235.281 452.64 235.915C451.892 236.549 451.491 237.327 451.5 238.127V291.625C451.509 293.859 450.439 296.038 448.44 297.854C446.441 299.671 443.614 301.033 440.36 301.748L433.064 303.346C431.102 303.778 429.045 303.999 426.974 304Z" fill="black"/>
</svg>
